<svg xmlns="http://www.w3.org/2000/svg" xmlns:xlink="http://www.w3.org/1999/xlink" width="488.949" height="146.128" viewBox="0 0 488.949 146.128">
  <defs>
    <linearGradient id="linear-gradient" x1="0.5" y1="0.004" x2="0.5" y2="0.998" gradientUnits="objectBoundingBox">
      <stop offset="0" stop-color="#7de379"/>
      <stop offset="0.468" stop-color="#41b9b3"/>
      <stop offset="1" stop-color="#5978f4"/>
    </linearGradient>
  </defs>
  <g id="组_4129" data-name="组 4129" transform="translate(-4247.881 9519.14)">
    <g id="组_4128" data-name="组 4128" transform="translate(582 -10741)">
      <g id="组_111" data-name="组 111">
        <path id="路径_568" data-name="路径 568" d="M3900.92,1335.3h-7.054v-9.21h6.874v1.168H3895.3v2.74h5.122v1.169H3895.3v3.01h5.616Z" fill="#898989"/>
        <path id="路径_569" data-name="路径 569" d="M3908.513,1335.3h-1.348v-3.954q0-1.8-1.528-1.751a1.821,1.821,0,0,0-1.8,1.842v3.863h-1.348v-6.649h1.348v1.168a2.79,2.79,0,0,1,2.291-1.348q2.427-.045,2.382,2.7Z" fill="#898989"/>
        <path id="路径_570" data-name="路径 570" d="M3908.558,1337.5l.224-.9a1.808,1.808,0,0,0,.719.134q.809.045.809-.987v-7.1h1.347v7.143q.09,2.112-1.842,2.022A2.782,2.782,0,0,1,3908.558,1337.5Zm1.752-10.108V1326h1.347v1.393Z" fill="#898989"/>
        <path id="路径_571" data-name="路径 571" d="M3916.375,1328.512q3.144.135,3.279,3.505-.09,3.324-3.369,3.413a3.179,3.179,0,0,1-3.325-3.369Q3913.1,1328.647,3916.375,1328.512Zm-.045,5.931q1.887-.045,1.932-2.426-.092-2.292-1.932-2.426-1.932.045-1.977,2.426Q3914.4,1334.352,3916.33,1334.443Z" fill="#898989"/>
        <path id="路径_572" data-name="路径 572" d="M3923.024,1335.027l-2.786-6.38h1.483l1.662,4.448.27.853h.045l.269-.853,1.528-4.448h1.482q-2.382,5.8-2.875,6.919-.854,2.425-2.246,2.246a2.4,2.4,0,0,1-1.213-.225l-.09-.988a2.311,2.311,0,0,0,.853.179,1.168,1.168,0,0,0,1.213-.808Q3922.709,1335.79,3923.024,1335.027Z" fill="#898989"/>
        <path id="路径_573" data-name="路径 573" d="M3937.445,1335.251h-1.3a2.342,2.342,0,0,1-.359-1.123,3.245,3.245,0,0,1-2.875,1.3q-2.067-.09-2.157-1.841,0-1.8,2.471-2.111a5.363,5.363,0,0,0,2.516-.72q.09-1.391-1.617-1.3-1.574,0-1.842,1.214l-1.3-.225q.493-2.022,3.145-1.977,3.1-.09,2.965,2.65v2.742A2.6,2.6,0,0,0,3937.445,1335.251Zm-1.617-2.786v-.853a3.671,3.671,0,0,1-1.977.674q-1.8.225-1.752,1.257-.045.99,1.393.944Q3935.647,1334.353,3935.828,1332.465Z" fill="#898989"/>
        <path id="路径_574" data-name="路径 574" d="M3951.732,1335.251h-1.393v-3.909q.043-1.841-1.348-1.8-1.438.09-1.527,1.841v3.864h-1.393V1331.3q.044-1.8-1.348-1.751-1.438.045-1.527,1.887v3.818h-1.348v-6.6h1.348v1.168a2.413,2.413,0,0,1,2.156-1.348,1.807,1.807,0,0,1,1.977,1.438,2.308,2.308,0,0,1,2.2-1.438q2.2,0,2.2,2.65Z" fill="#898989"/>
        <path id="路径_575" data-name="路径 575" d="M3956.4,1328.512q3.144.135,3.28,3.505-.092,3.324-3.37,3.413a3.177,3.177,0,0,1-3.324-3.369Q3953.125,1328.647,3956.4,1328.512Zm-.045,5.931q1.887-.045,1.932-2.426-.092-2.292-1.932-2.426-1.932.045-1.977,2.426Q3954.427,1334.352,3956.359,1334.443Z" fill="#898989"/>
        <path id="路径_576" data-name="路径 576" d="M3962.2,1331.837v3.414h-1.348v-6.6h1.348v1.258a1.869,1.869,0,0,1,1.752-1.438,2.445,2.445,0,0,1,1.213.36l-.5,1.212a1.389,1.389,0,0,0-.943-.314Q3962.245,1329.815,3962.2,1331.837Z" fill="#898989"/>
        <path id="路径_577" data-name="路径 577" d="M3970.825,1333.229l1.438.225q-.719,1.977-3.28,1.976-3.324-.134-3.459-3.369.135-3.459,3.325-3.594,3.324.047,3.369,3.594v.359h-5.3a1.964,1.964,0,0,0,2.066,2.067A1.751,1.751,0,0,0,3970.825,1333.229Zm-3.908-1.751h3.953a1.858,1.858,0,0,0-1.931-2.023A1.928,1.928,0,0,0,3966.917,1331.478Z" fill="#898989"/>
        <path id="路径_578" data-name="路径 578" d="M3982.1,1330.264l-1.348.18a1.344,1.344,0,0,0-1.482-.989q-1.3,0-1.3.944-.092.673,1.482.943c.33.091.674.18,1.033.27q1.977.448,1.888,1.887-.047,1.887-2.831,1.931-2.83.136-3.235-1.976l1.348-.225a1.575,1.575,0,0,0,1.8,1.258q1.484,0,1.528-1.033.089-.675-1.348-.989a1.875,1.875,0,0,1-.449-.089c-.27-.06-.465-.1-.584-.135q-2.112-.495-2.067-1.8.135-1.887,2.651-1.977Q3981.608,1328.422,3982.1,1330.264Z" fill="#898989"/>
        <path id="路径_579" data-name="路径 579" d="M3988.661,1333.229l1.438.225q-.72,1.977-3.28,1.976-3.326-.134-3.459-3.369.135-3.459,3.325-3.594,3.324.047,3.369,3.594v.359h-5.3a1.963,1.963,0,0,0,2.066,2.067A1.751,1.751,0,0,0,3988.661,1333.229Zm-3.908-1.751h3.953a1.858,1.858,0,0,0-1.932-2.023A1.927,1.927,0,0,0,3984.753,1331.478Z" fill="#898989"/>
        <path id="路径_580" data-name="路径 580" d="M3997.512,1330.578l-1.393.27a1.81,1.81,0,0,0-1.662-1.257q-1.932.09-1.977,2.426.044,2.336,1.977,2.381a1.613,1.613,0,0,0,1.707-1.528l1.437.18a2.834,2.834,0,0,1-3.189,2.38q-3.281-.09-3.37-3.413.09-3.461,3.37-3.55A3.144,3.144,0,0,1,3997.512,1330.578Z" fill="#898989"/>
        <path id="路径_581" data-name="路径 581" d="M4004.655,1335.251h-1.348v-1.123a2.463,2.463,0,0,1-2.2,1.3q-2.472,0-2.471-2.605v-4.178h1.348v4.043q0,1.754,1.572,1.753a1.811,1.811,0,0,0,1.752-1.932v-3.864h1.348Z" fill="#898989"/>
        <path id="路径_582" data-name="路径 582" d="M4007.575,1331.837v3.414h-1.348v-6.6h1.348v1.258a1.87,1.87,0,0,1,1.752-1.438,2.443,2.443,0,0,1,1.213.36l-.494,1.212a1.389,1.389,0,0,0-.943-.314Q4007.62,1329.815,4007.575,1331.837Z" fill="#898989"/>
        <path id="路径_583" data-name="路径 583" d="M4016.2,1333.229l1.438.225q-.72,1.977-3.28,1.976-3.325-.134-3.459-3.369.134-3.459,3.324-3.594,3.324.047,3.37,3.594v.359h-5.3a1.965,1.965,0,0,0,2.067,2.067A1.752,1.752,0,0,0,4016.2,1333.229Zm-3.909-1.751h3.954a1.858,1.858,0,0,0-1.932-2.023A1.928,1.928,0,0,0,4012.292,1331.478Z" fill="#898989"/>
        <path id="路径_584" data-name="路径 584" d="M4028.241,1330.578l-1.392.27a1.81,1.81,0,0,0-1.663-1.257q-1.932.09-1.976,2.426.044,2.336,1.976,2.381a1.612,1.612,0,0,0,1.707-1.528l1.438.18a2.835,2.835,0,0,1-3.19,2.38q-3.279-.09-3.369-3.413.09-3.461,3.369-3.55A3.143,3.143,0,0,1,4028.241,1330.578Z" fill="#898989"/>
        <path id="路径_585" data-name="路径 585" d="M4032.42,1328.512q3.144.135,3.279,3.505-.09,3.324-3.369,3.413a3.178,3.178,0,0,1-3.325-3.369Q4029.14,1328.647,4032.42,1328.512Zm-.045,5.931q1.886-.045,1.931-2.426-.09-2.292-1.931-2.426-1.934.045-1.977,2.426Q4030.442,1334.352,4032.375,1334.443Z" fill="#898989"/>
        <path id="路径_586" data-name="路径 586" d="M4046.841,1335.251h-1.393v-3.909q.045-1.841-1.348-1.8-1.438.09-1.527,1.841v3.864h-1.393V1331.3q.045-1.8-1.348-1.751-1.438.045-1.527,1.887v3.818h-1.348v-6.6h1.348v1.168a2.414,2.414,0,0,1,2.156-1.348,1.806,1.806,0,0,1,1.977,1.438,2.308,2.308,0,0,1,2.2-1.438q2.2,0,2.2,2.65Z" fill="#898989"/>
        <path id="路径_587" data-name="路径 587" d="M4058.342,1335.251h-1.393v-3.909q.045-1.841-1.348-1.8-1.437.09-1.527,1.841v3.864h-1.393V1331.3q.045-1.8-1.347-1.751-1.438.045-1.528,1.887v3.818h-1.348v-6.6h1.348v1.168a2.415,2.415,0,0,1,2.156-1.348,1.806,1.806,0,0,1,1.977,1.438,2.308,2.308,0,0,1,2.2-1.438q2.2,0,2.2,2.65Z" fill="#898989"/>
        <path id="路径_588" data-name="路径 588" d="M4065.979,1335.251h-1.347v-1.123a2.464,2.464,0,0,1-2.2,1.3q-2.47,0-2.471-2.605v-4.178h1.348v4.043q0,1.754,1.573,1.753a1.811,1.811,0,0,0,1.752-1.932v-3.864h1.347Z" fill="#898989"/>
        <path id="路径_589" data-name="路径 589" d="M4073.707,1335.3h-1.348v-3.954q0-1.8-1.528-1.751a1.821,1.821,0,0,0-1.8,1.842v3.863h-1.347v-6.649h1.347v1.168a2.792,2.792,0,0,1,2.292-1.348q2.426-.045,2.381,2.7Z" fill="#898989"/>
        <path id="路径_590" data-name="路径 590" d="M4075.369,1327.389V1326h1.393v1.393Zm0,7.862v-6.6h1.393v6.6Z" fill="#898989"/>
        <path id="路径_591" data-name="路径 591" d="M4084.534,1330.578l-1.393.27a1.808,1.808,0,0,0-1.662-1.257q-1.932.09-1.977,2.426.045,2.336,1.977,2.381a1.613,1.613,0,0,0,1.707-1.528l1.438.18a2.835,2.835,0,0,1-3.19,2.38q-3.279-.09-3.369-3.413.089-3.461,3.369-3.55A3.143,3.143,0,0,1,4084.534,1330.578Z" fill="#898989"/>
        <path id="路径_592" data-name="路径 592" d="M4092.037,1335.251h-1.3a2.344,2.344,0,0,1-.359-1.123,3.248,3.248,0,0,1-2.876,1.3q-2.067-.09-2.156-1.841,0-1.8,2.471-2.111a5.368,5.368,0,0,0,2.516-.72q.088-1.391-1.618-1.3-1.573,0-1.842,1.214l-1.3-.225q.5-2.022,3.145-1.977,3.1-.09,2.965,2.65v2.742A2.6,2.6,0,0,0,4092.037,1335.251Zm-1.618-2.786v-.853a3.665,3.665,0,0,1-1.976.674q-1.8.225-1.753,1.257-.045.99,1.393.944Q4090.24,1334.353,4090.419,1332.465Z" fill="#898989"/>
        <path id="路径_593" data-name="路径 593" d="M4095,1326.176v2.471h1.482v1.033H4095v3.774q-.045,1.033.809.989a1.379,1.379,0,0,0,.629-.136l.224.764a2.046,2.046,0,0,1-1.3.359q-1.752.047-1.707-1.751v-4h-1.078v-1.033h1.078v-2.112Z" fill="#898989"/>
        <path id="路径_594" data-name="路径 594" d="M4097.563,1327.389V1326h1.392v1.393Zm0,7.862v-6.6h1.392v6.6Z" fill="#898989"/>
        <path id="路径_595" data-name="路径 595" d="M4103.628,1328.512q3.144.135,3.279,3.505-.09,3.324-3.369,3.413a3.179,3.179,0,0,1-3.325-3.369Q4100.348,1328.647,4103.628,1328.512Zm-.045,5.931q1.887-.045,1.932-2.426-.092-2.292-1.932-2.426-1.932.045-1.977,2.426Q4101.651,1334.352,4103.583,1334.443Z" fill="#898989"/>
        <path id="路径_596" data-name="路径 596" d="M4114.23,1335.3h-1.347v-3.954q0-1.8-1.528-1.751a1.82,1.82,0,0,0-1.8,1.842v3.863h-1.348v-6.649h1.348v1.168a2.79,2.79,0,0,1,2.291-1.348q2.427-.045,2.381,2.7Z" fill="#898989"/>
        <path id="路径_597" data-name="路径 597" d="M4117.87,1326.086l-.225,6.6h-1.123l-.225-6.6Zm-.045,9.21h-1.483v-1.437h1.483Z" fill="#898989"/>
      </g>
    </g>
    <g id="组_4127" data-name="组 4127" transform="translate(582 -10741)">
      <path id="路径_598" data-name="路径 598" d="M4013.721,1261.261l11.71-1.877v12.156h14.048v9.745h-14.048v14.524a11.6,11.6,0,0,0,1.293,5.9c.866,1.451,2.6,2.185,5.222,2.185a22.358,22.358,0,0,0,3.885-.345,20.521,20.521,0,0,0,3.648-.983l1.653,9.1a30.782,30.782,0,0,1-4.711,1.495,27.472,27.472,0,0,1-6.36.631,21.064,21.064,0,0,1-7.93-1.291,12.512,12.512,0,0,1-5.03-3.621,13.409,13.409,0,0,1-2.636-5.617,32.961,32.961,0,0,1-.744-7.3Z" fill="#898989"/>
      <path id="路径_599" data-name="路径 599" d="M4062.256,1270.28a26.845,26.845,0,0,1,8.634,1.188,13.316,13.316,0,0,1,5.542,3.372,12.52,12.52,0,0,1,2.944,5.338,26.4,26.4,0,0,1,.858,6.995V1311.5q-2.5.561-6.984,1.305a67.042,67.042,0,0,1-10.84.748,34.92,34.92,0,0,1-7.259-.7,15.836,15.836,0,0,1-5.62-2.317,10.635,10.635,0,0,1-3.607-4.209,14.477,14.477,0,0,1-1.258-6.364,11.988,11.988,0,0,1,1.455-6.115,11.082,11.082,0,0,1,3.886-4,17.365,17.365,0,0,1,5.573-2.156,30.564,30.564,0,0,1,6.518-.675,36.643,36.643,0,0,1,4.043.2,17.8,17.8,0,0,1,2.868.506v-1.1a6.519,6.519,0,0,0-1.807-4.788c-1.207-1.2-3.3-1.811-6.285-1.811a40.187,40.187,0,0,0-5.884.44,26.512,26.512,0,0,0-5.026,1.21l-1.491-9.422c.678-.2,1.525-.425,2.547-.659s2.13-.455,3.337-.631,2.481-.345,3.816-.469S4060.9,1270.28,4062.256,1270.28Zm.945,34.241c1.145,0,2.248-.029,3.3-.074a21.219,21.219,0,0,0,2.508-.249v-8.865c-.477-.1-1.177-.2-2.127-.315a24.035,24.035,0,0,0-2.585-.154,23.216,23.216,0,0,0-3.108.2,8.159,8.159,0,0,0-2.548.741,4.5,4.5,0,0,0-1.727,1.5,4.145,4.145,0,0,0-.63,2.353,4.024,4.024,0,0,0,1.847,3.813A10.233,10.233,0,0,0,4063.2,1304.521Z" fill="#898989"/>
      <path id="路径_600" data-name="路径 600" d="M4107.33,1313.466a29.722,29.722,0,0,1-8.285-1.086,12.326,12.326,0,0,1-5.027-2.874,9.517,9.517,0,0,1-2.518-4.472,24.232,24.232,0,0,1-.664-5.924v-45.194l11.7-1.892v44.725a14.912,14.912,0,0,0,.242,2.83,4.924,4.924,0,0,0,.891,2.119,4.765,4.765,0,0,0,1.928,1.4,9.758,9.758,0,0,0,3.384.7Z" fill="#898989"/>
      <path id="路径_601" data-name="路径 601" d="M4127.346,1287.327c1.151-1.254,2.346-2.552,3.567-3.908s2.423-2.691,3.571-4.018,2.232-2.588,3.259-3.791c1.015-1.188,1.9-2.229,2.625-3.123h13.912q-4.162,4.794-8.131,9.135t-8.666,8.967a55.68,55.68,0,0,1,4.864,5.074c1.668,1.972,3.3,4,4.869,6.093s3.006,4.194,4.319,6.3,2.4,4.011,3.295,5.734h-13.451q-1.258-2.035-2.87-4.524c-1.067-1.657-2.2-3.3-3.409-4.956s-2.46-3.241-3.795-4.766a32.767,32.767,0,0,0-3.959-3.85v18.1h-11.7v-59.854l11.7-1.892Z" fill="#898989"/>
    </g>
    <g id="组_4126" data-name="组 4126" transform="translate(-452 -834)">
      <path id="路径_602" data-name="路径 602" d="M3893.262,1303.274v10.514h-36.356v-54.411h12.252v43.9Z" transform="translate(1034 -9907)" fill="#6cd789"/>
      <path id="路径_603" data-name="路径 603" d="M3895.983,1292.35a25.3,25.3,0,0,1,1.682-9.62,20.444,20.444,0,0,1,4.437-6.863,18.3,18.3,0,0,1,6.32-4.164,19.743,19.743,0,0,1,7.347-1.423q8.8,0,13.894,5.382t5.106,15.822c0,.683-.025,1.43-.08,2.237s-.1,1.532-.154,2.163h-26.542a7.786,7.786,0,0,0,3.376,5.734,13.627,13.627,0,0,0,8.01,2.111,33.57,33.57,0,0,0,6.321-.587,23.418,23.418,0,0,0,5.062-1.444l1.569,9.495a17.7,17.7,0,0,1-2.51.953c-1.045.308-2.211.572-3.494.814s-2.658.432-4.125.594c-1.462.146-2.925.234-4.392.234a26.322,26.322,0,0,1-9.7-1.642,19.116,19.116,0,0,1-6.834-4.524,17.973,17.973,0,0,1-4-6.8A26.9,26.9,0,0,1,3895.983,1292.35Zm27.477-4.473a12.206,12.206,0,0,0-.51-2.911,7.354,7.354,0,0,0-1.33-2.515,7.224,7.224,0,0,0-2.28-1.8,7.422,7.422,0,0,0-3.414-.7,7.919,7.919,0,0,0-3.38.668,6.935,6.935,0,0,0-2.353,1.767,7.862,7.862,0,0,0-1.449,2.552,16.076,16.076,0,0,0-.751,2.947Z" transform="translate(1034 -9907)" fill="#6cd789"/>
      <path id="路径_604" data-name="路径 604" d="M3940.672,1261.1l11.7-1.876v12.156h14.056v9.744h-14.056v14.525a11.62,11.62,0,0,0,1.291,5.895c.868,1.451,2.609,2.185,5.227,2.185a22.429,22.429,0,0,0,3.89-.345,20.62,20.62,0,0,0,3.648-.983l1.646,9.1a31.121,31.121,0,0,1-4.7,1.5,27.641,27.641,0,0,1-6.365.63,21.121,21.121,0,0,1-7.933-1.29,12.517,12.517,0,0,1-5.027-3.622,13.364,13.364,0,0,1-2.624-5.617,32.873,32.873,0,0,1-.752-7.3Z" transform="translate(1034 -9907)" fill="#6cd789"/>
      <path id="路径_605" data-name="路径 605" d="M3986.371,1304.286a11.484,11.484,0,0,0,4.549-.631,2.429,2.429,0,0,0,1.342-2.434,2.964,2.964,0,0,0-1.73-2.463,32.016,32.016,0,0,0-5.261-2.405,52.029,52.029,0,0,1-4.986-2.126,14.449,14.449,0,0,1-3.809-2.625,10.716,10.716,0,0,1-2.438-3.652,13.546,13.546,0,0,1-.865-5.1,11.035,11.035,0,0,1,4.322-9.18q4.317-3.375,11.86-3.387a38.313,38.313,0,0,1,7.215.675,33.28,33.28,0,0,1,5.5,1.451l-2.042,9.107a45.5,45.5,0,0,0-4.435-1.262,24.166,24.166,0,0,0-5.379-.542c-3.67,0-5.5,1.011-5.5,3.065a3,3,0,0,0,.238,1.254,2.636,2.636,0,0,0,.935,1.063,14.577,14.577,0,0,0,1.924,1.1c.814.4,1.845.836,3.1,1.3a47.65,47.65,0,0,1,6.361,2.815,15.213,15.213,0,0,1,3.966,2.991,9.218,9.218,0,0,1,2.042,3.557,15.887,15.887,0,0,1,.591,4.545q0,6.115-4.594,9.246t-13,3.138a36.433,36.433,0,0,1-14.209-2.514l1.961-9.5a38.733,38.733,0,0,0,6.13,1.848A29.6,29.6,0,0,0,3986.371,1304.286Z" transform="translate(1034 -9907)" fill="#6cd789"/>
    </g>
    <g id="Letstalk-App-Icon" transform="translate(574 -10741)">
      <path id="路径_644" data-name="路径 644" d="M3826.086,1324.765a22.906,22.906,0,0,1-7.292,17.04,36.835,36.835,0,0,1-13.465,7.9,72.464,72.464,0,0,1-12.834,3.144c-2,.328-4,.713-6,1.071-.2.036-.4.06-.721.107v-.7q0-14.061-.017-28.124a1.071,1.071,0,0,1,.592-1.031,13.651,13.651,0,0,0,6.377-8.17,16.969,16.969,0,0,0,.526-4.168c.038-10.661-.015-21.322.026-31.982a13.825,13.825,0,0,0-4.084-10.373,20.955,20.955,0,0,0-6.657-4.278,45.965,45.965,0,0,0-9.51-2.6q-5.247-1.009-10.489-2.037-5.73-1.116-11.46-2.238c-3.17-.623-6.338-1.258-9.508-1.881-4.774-.938-9.525-2.029-14.33-2.767-6.291-.966-11.9.646-16.418,5.3a13.707,13.707,0,0,0-3.913,8.517c-.11,1.234-.193,2.477-.194,3.715q-.023,24.7-.014,49.4a15.63,15.63,0,0,0,10.53,15,20.425,20.425,0,0,0,10.824.9c6.113-1.113,12.22-2.274,18.36-3.217,8.307-1.276,16.072.187,22.973,5.2a34.662,34.662,0,0,1,9.141,10.066c1.114,1.814,2.058,3.733,3.074,5.607a6.052,6.052,0,0,1,.237.575l-4.077.734q-6.3,1.134-12.6,2.266c-4.364.777-8.733,1.534-13.1,2.31-4.488.8-8.973,1.615-13.46,2.415-4.507.8-9.016,1.595-13.522,2.4-3.834.685-7.664,1.387-11.5,2.075a45.2,45.2,0,0,1-10.25,1.009,32.658,32.658,0,0,1-19.9-7.409,26.278,26.278,0,0,1-8.437-12.7,25.842,25.842,0,0,1-1.1-7.653q-.012-45.2,0-90.408c.01-9.673,4.237-17.165,12.2-22.552a32.084,32.084,0,0,1,14.37-5.153,41.036,41.036,0,0,1,13.4.9c4.073.85,8.168,1.6,12.25,2.407,4.653.919,9.3,1.858,13.954,2.774,5.119,1.008,10.242,1.995,15.362,3,5.466,1.072,10.928,2.161,16.394,3.23q9.786,1.913,19.575,3.806a85.382,85.382,0,0,1,13.523,3.461,40.171,40.171,0,0,1,13.42,7.777,22.856,22.856,0,0,1,7.353,13.01,24.388,24.388,0,0,1,.385,4.324Q3826.119,1295.769,3826.086,1324.765Z" fill-rule="evenodd" fill="url(#linear-gradient)"/>
    </g>
  </g>
</svg>
