<svg xmlns="http://www.w3.org/2000/svg" width="55" height="67.302" viewBox="0 0 55 67.302"><g transform="translate(-27.875 0)"><path d="M30.713,81.377c-5.69,10.183-2.073,25.636,4.219,35.006,3.141,4.684,6.32,8.889,10.676,8.889.082,0,.164,0,.249-.005a12.873,12.873,0,0,0,4.955-1.362,13.236,13.236,0,0,1,5.869-1.435,12.45,12.45,0,0,1,5.587,1.388,11.548,11.548,0,0,0,5.352,1.323c4.906-.094,7.918-4.632,10.575-8.634a38.815,38.815,0,0,0,4.633-9.788l.019-.062a.576.576,0,0,0-.293-.7l-.04-.018A14.454,14.454,0,0,1,73.992,92.7a14.984,14.984,0,0,1,6.84-12.48l.054-.035a.569.569,0,0,0,.242-.365.583.583,0,0,0-.085-.434,15.765,15.765,0,0,0-12.52-7.012,10.711,10.711,0,0,0-1.092-.055,21.294,21.294,0,0,0-7.858,2.024,12.342,12.342,0,0,1-3.764,1.16,12.031,12.031,0,0,1-3.894-1.174,18.41,18.41,0,0,0-6.863-1.8l-.174,0A16.763,16.763,0,0,0,30.713,81.377Z" transform="translate(0 -57.97)" fill="#fff"/><path d="M161.689,0a13.818,13.818,0,0,0-9.122,4.679c-1.906,2.208-3.768,5.889-3.277,9.6a.5.5,0,0,0,.453.429c.211.016.427.025.641.025a11.688,11.688,0,0,0,8.61-4.416A13.649,13.649,0,0,0,162.2.442.5.5,0,0,0,161.689,0Z" transform="translate(-93.593 0)" fill="#fff"/></g></svg>