<svg xmlns="http://www.w3.org/2000/svg" width="55" height="61.993" viewBox="0 0 55 61.993"><g transform="translate(-8 -5.931)"><path d="M14.875,36.562a3.438,3.438,0,0,1-6.875,0V21.375a3.438,3.438,0,0,1,6.875,0Zm48.125,0a3.438,3.438,0,0,1-6.875,0V21.375a3.438,3.438,0,0,1,6.875,0ZM32.063,55.124a3.438,3.438,0,0,1-6.875,0V39.937a3.438,3.438,0,0,1,6.875,0Zm13.75,0a3.438,3.438,0,0,1-6.875,0V39.937a3.438,3.438,0,0,1,6.875,0Z" transform="translate(0 9.425)" fill="#fff"/><path d="M14,24.875V50.187a3.436,3.436,0,0,0,3.475,3.375h27.8a3.436,3.436,0,0,0,3.475-3.375V24.875ZM31.375,8C20.95,8,14.521,14.075,14,21.5H48.75C48.229,14.075,41.8,8,31.375,8Zm-6.95,9.45a1.688,1.688,0,1,1,1.738-1.687A1.716,1.716,0,0,1,24.425,17.45Zm13.9,0a1.688,1.688,0,1,1,1.738-1.687A1.716,1.716,0,0,1,38.325,17.45Z" transform="translate(4.125 1.422)" fill="#fff"/><path d="M36.047,13.641a2.4,2.4,0,0,1-1.012-.337,1.66,1.66,0,0,1-.506-2.362L37.4,6.722a1.708,1.708,0,0,1,2.869,1.856L37.4,12.8A1.336,1.336,0,0,1,36.047,13.641ZM20.86,12.966a1.5,1.5,0,0,1-1.35-.844L17.316,8.578a1.708,1.708,0,1,1,2.869-1.856l2.194,3.544a1.66,1.66,0,0,1-.506,2.362A2.4,2.4,0,0,1,20.86,12.966Z" transform="translate(6.709 0)" fill="#fff"/></g></svg>