<svg xmlns="http://www.w3.org/2000/svg" width="21.788" height="23.811" viewBox="0 0 21.788 23.811"><g transform="translate(0 0)"><path d="M9.2,4.654c.194-.62.387-1.2.6-1.781.174-.484.368-.968.542-1.472A1.9,1.9,0,0,1,12.395-.012a26.754,26.754,0,0,1,3.059.155c1.414.155,2.827.329,4.241.581a39.975,39.975,0,0,1,8.016,2.324A1.962,1.962,0,0,1,29.183,4.79a12.231,12.231,0,0,1-.019,1.685c-.058.891-.136,1.781-.213,2.653a37.313,37.313,0,0,1-.988,5.635,40.286,40.286,0,0,1-1.685,5.17,6.954,6.954,0,0,1-.329.658,1.631,1.631,0,0,1-1.646.833c-1.51-.1-3.04-.194-4.55-.329-.7-.058-1.394-.194-2.111-.31a.544.544,0,0,0-.62.232,8.279,8.279,0,0,1-3.466,2.73.375.375,0,0,1-.542-.174.35.35,0,0,1,.077-.5,4.793,4.793,0,0,0,1.53-2.672.794.794,0,0,0,.019-.213c-1.355-.407-2.672-.794-4.066-1.22.116-.077.136-.116.155-.116a3.816,3.816,0,0,0,2.42-3.156,6.985,6.985,0,0,0,.058-1.278c.019-.581.077-.678.678-.678h1.9a2.86,2.86,0,0,0,.407-.019.382.382,0,0,0,.387-.349,5.7,5.7,0,0,0,.019-.813c-.039-.368-.194-.484-.562-.5H13.867c-.562,0-.658-.1-.658-.639V10.153c0-.465.116-.581.6-.581h2.169c.445,0,.6-.136.639-.581a3.966,3.966,0,0,0-.019-.678.417.417,0,0,0-.465-.426c-.678,0-1.355-.019-2.014-.019-.833,0-.871-.039-.871-.891V6.126c0-.426.1-.542.5-.658.736-.213,1.472-.407,2.207-.639.775-.252.775-.29.407-1.007-.1-.174-.174-.349-.29-.523-.155-.271-.29-.31-.6-.194l-1.627.581c-.077.019-.155.039-.252.058-.271.058-.368-.019-.368-.31V2.582c0-.349-.116-.5-.465-.542a6.019,6.019,0,0,0-1.026-.019c-.368.019-.5.174-.523.581s0,.794,0,1.2c0,.426-.058.5-.484.6-.445.1-.891.155-1.336.232C9.355,4.673,9.3,4.673,9.2,4.654ZM22,3.976l-.077.31c-.445,1.336-.871,2.653-1.336,3.969A.888.888,0,0,0,20.818,9.3a6.729,6.729,0,0,1,1.491,2.324,4.062,4.062,0,0,1,.31,1.723,1.014,1.014,0,0,1-.949,1.1,4.742,4.742,0,0,1-1.046.058.483.483,0,0,0-.523.5,6.255,6.255,0,0,0,0,.852.444.444,0,0,0,.5.484,13.442,13.442,0,0,0,1.53-.019,2.306,2.306,0,0,0,2.149-1.781,5.376,5.376,0,0,0,.077-2.42,5.64,5.64,0,0,0-1.7-3.176c-.349-.349-.329-.329-.155-.775.523-1.452,1.065-2.9,1.568-4.357a1.686,1.686,0,0,0-.929-1.665,1.465,1.465,0,0,0-.29-.019H18.01c-.445,0-.581.155-.6.581V18.557a.417.417,0,0,0,.445.445,6.542,6.542,0,0,0,.871,0c.387-.019.523-.155.523-.542V4.364c0-.426,0-.426.426-.426h1.743A2.743,2.743,0,0,0,22,3.976Z" transform="translate(-7.415 0.015)" fill="#54b912"/><path d="M1.9,75.786c-1.239-.271-1.975-.91-1.917-2.014.058-.775.058-1.549.077-2.324,0-.271.1-.349.368-.349.871.019,1.743,0,2.614,0H3.24c.484.039.542.116.542.6a4,4,0,0,1-.174,1.51A1.635,1.635,0,0,1,2.33,74.372c-.407.077-.445.136-.445.562C1.9,75.205,1.9,75.5,1.9,75.786Z" transform="translate(0.017 -57.33)" fill="#54b912"/><path d="M1.3,53.43c.1-.736.194-1.414.29-2.13H4.476a.35.35,0,0,1,.387.368c0,.465.019.929,0,1.394,0,.29-.136.387-.523.387H1.649A2.483,2.483,0,0,1,1.3,53.43Z" transform="translate(-1.045 -41.364)" fill="#54b912"/><path d="M4.5,33.722c.116-.542.232-1.065.368-1.568A.364.364,0,0,1,5.081,32c.62-.116,1.259-.232,1.9-.349a.354.354,0,0,1,.465.387v1.278c0,.213-.1.387-.31.387C6.262,33.722,5.41,33.722,4.5,33.722Z" transform="translate(-3.625 -25.509)" fill="#54b912"/></g></svg>