<svg xmlns="http://www.w3.org/2000/svg" xmlns:xlink="http://www.w3.org/1999/xlink" width="1393.783" height="921.713" viewBox="0 0 1393.783 921.713">
  <defs>
    <linearGradient id="linear-gradient" x1="138.674" y1="0.5" x2="139.674" y2="0.5" gradientUnits="objectBoundingBox">
      <stop offset="0" stop-color="#7de379"/>
      <stop offset="0.513" stop-color="#16ada5"/>
      <stop offset="1" stop-color="#5978f4"/>
    </linearGradient>
    <linearGradient id="linear-gradient-2" x1="0" y1="0.5" x2="1" y2="0.5" xlink:href="#linear-gradient"/>
    <linearGradient id="linear-gradient-3" x1="1.122" y1="-6.339" x2="1.122" y2="-6.338" gradientUnits="objectBoundingBox">
      <stop offset="0" stop-color="gray" stop-opacity="0.251"/>
      <stop offset="0.54" stop-color="gray" stop-opacity="0.122"/>
      <stop offset="1" stop-color="gray" stop-opacity="0.102"/>
    </linearGradient>
    <linearGradient id="linear-gradient-4" x1="293.147" y1="-998.289" x2="293.147" y2="-998.039" xlink:href="#linear-gradient-3"/>
  </defs>
  <g id="组_4314" data-name="组 4314" transform="translate(101 3927.999)">
    <path id="路径_6871" data-name="路径 6871" d="M-303.928,3939.491c18.237,24.423,56.093,26.993,56.093,26.993s8.288-37.027-9.949-61.45-56.093-26.993-56.093-26.993S-322.165,3915.068-303.928,3939.491Z" transform="translate(240.271 -7122.939)" fill="#5978f4" opacity="0.65" style="isolation: isolate"/>
    <ellipse id="椭圆_559" data-name="椭圆 559" cx="97.649" cy="11.703" rx="97.649" ry="11.703" transform="translate(1060.043 -3036.287)" fill="#d1e9db" style="isolation: isolate"/>
    <path id="路径_5117" data-name="路径 5117" d="M-314.455,3932.613a43.868,43.868,0,0,0-3.784,17.889c0,24.333,19.726,25.178,44.071,25.178s44.073-.844,44.073-25.178a44.107,44.107,0,0,0-5.419-21.182,44.073,44.073,0,0,0-59.827-17.478l27.115,15.934-34.6-10.759a44.176,44.176,0,0,0-9.38,11.217l18.338,10.79Z" transform="translate(238.03 -7097.339)" opacity="0.28" fill="url(#linear-gradient)"/>
    <path id="路径_5118" data-name="路径 5118" d="M-306.459,3949.266a37.463,37.463,0,0,0-5.079,7.885l-1.417,2.652c8.49,3.2,19.993,3.412,32.667,3.412,26.118,0,47.284-.905,47.284-27.013a47.131,47.131,0,0,0-2.8-16.046,29.888,29.888,0,0,0-3.557-.73c-4.132-.564-8.552-.072-12.037,2.211-3.226,2.147-5.345,5.539-8.027,8.314a26.37,26.37,0,0,1-17.278,7.916c-3.793.217-7.607-.38-11.309.329-4.213.8-7.9,3.228-11.48,5.6a36.789,36.789,0,0,0-6.97,5.469Z" transform="translate(242.798 -7085.793)" opacity="0.1" style="isolation: isolate"/>
    <path id="路径_6118" data-name="路径 6118" d="M225.629,3548.369c-51.726-16.742-106.415-30.774-162.309-29.329-82.171,2.134-161.177,40.426-200.143,97.022-32.937,47.959-37.333,104.325-51.711,157.654-17.716,65.7-51.34,128.053-87.227,189.03-19.275,32.75-39.61,66.188-42.96,102.177-4.6,49.965,25.676,99.914,73.406,133.4s111.241,51.324,175.054,55.492c33.953,2.2,69.44.5,99.67-11.729,31.979-12.888,55.363-36.474,87.471-49.219,29.757-11.8,64.442-13.317,97.823-11.585a544.188,544.188,0,0,1,127.538,21.854c46.527,13.918,89.761,33.953,136.187,48.073s98.325,22.11,145.9,10.756c44.665-10.655,80.094-36.919,112.044-63.527A1218.285,1218.285,0,0,0,879.5,4058.093c28.855-33.5,55.736-68.867,68.623-108.005,24.617-74.838-8.362-159.573-82.156-211.113-61.134-42.717-143.378-61.578-223.915-73.035-73.449-10.554-158.428-11.6-225.935-38.479C351.735,3601.757,293.164,3570.222,225.629,3548.369Z" transform="translate(218.181 -7446.938)" opacity="0.28" fill="url(#linear-gradient-2)"/>
    <ellipse id="椭圆_669" data-name="椭圆 669" cx="544.572" cy="48.317" rx="544.572" ry="48.317" transform="translate(-9.304 -3176.506)" fill="#00bfa6" opacity="0.1" style="isolation: isolate"/>
    <path id="路径_6592" data-name="路径 6592" d="M802.767,3600.029h-1079.3a9.8,9.8,0,0,0-9.614,9.98v.012l-.365,642.094H811.733l.649-642.094A9.816,9.816,0,0,0,802.767,3600.029Z" transform="translate(277.66 -7373.773)" fill="url(#linear-gradient-3)"/>
    <path id="路径_6594" data-name="路径 6594" d="M805.613,3611.862v28.816H-283.655v-28.816a9.715,9.715,0,0,1,9.534-9.89h1070.2a9.716,9.716,0,0,1,9.534,9.89Z" transform="translate(280.234 -7372.021)" fill="#ededf4"/>
    <circle id="椭圆_682" data-name="椭圆 682" cx="4.622" cy="4.622" r="4.622" transform="translate(9.865 -3755.607)" fill="#fa5959" opacity="0.8" style="isolation: isolate"/>
    <circle id="椭圆_683" data-name="椭圆 683" cx="4.622" cy="4.622" r="4.622" transform="translate(22.574 -3755.607)" fill="#fed253" opacity="0.8" style="isolation: isolate"/>
    <circle id="椭圆_684" data-name="椭圆 684" cx="4.622" cy="4.622" r="4.622" transform="translate(35.284 -3755.607)" fill="#8ccf4d" opacity="0.8" style="isolation: isolate"/>
    <rect id="矩形_2819" data-name="矩形 2819" width="6.932" height="4.622" transform="translate(590.396 -3791.193)" fill="url(#linear-gradient-4)"/>
    <g id="组_4306" data-name="组 4306" transform="translate(1101.445 -3375.799)">
      <path id="路径_6054" data-name="路径 6054" d="M380.14,3857.067l-28.178,3.2c.384-8.655-.346-16.729-3.2-23.694l23.055-8.326C369.749,3836.867,373.629,3846.7,380.14,3857.067Z" transform="translate(-280.618 -3792.066)" fill="#ffb8b8"/>
      <path id="路径_6055" data-name="路径 6055" d="M377.409,3940.385l9.127,16.292a8.468,8.468,0,0,1-3.249,11.524l-.11.061h0a8.466,8.466,0,0,1-12.456-6.643l-1.484-15.571-5.06-59.436-8.621-39.1,17.908-5.085,8.336,43.963Z" transform="translate(-274.487 -3779.268)" fill="#ffb8b8"/>
      <path id="路径_6056" data-name="路径 6056" d="M423.923,4085.668l-11.528-.639-25.616-113.992-54.435,114.631-11.526-.639,33.3-176.751.639-32.021,41.627-2.56c15.557,17.108,24.368,34.8,25.616,53.152Z" transform="translate(-305.828 -3751.06)" fill="#4b4196"/>
      <path id="路径_6057" data-name="路径 6057" d="M338.521,4007.32c-2.182,1-4.28-7.31-5.849-5.263-5.275,6.876-17.554,4.719-17.5,3.926a3.22,3.22,0,0,1-2.079-4.05c.017-.048.032-.1.051-.145h0a3.216,3.216,0,0,1,2.231-1.991l5.478-1.368,8.6-15.117,8.773-.594h0a20.965,20.965,0,0,1,3.877,17.887C341.306,4003.852,340.077,4006.611,338.521,4007.32Z" transform="translate(-312.938 -3652.696)" fill="#5978f4"/>
      <path id="路径_6058" data-name="路径 6058" d="M386.353,4007.6c-2.182,1-4.278-7.31-5.849-5.263-6.076,7.919-17.908,5.188-17.5,3.926a3.22,3.22,0,0,1-2.079-4.05c.015-.048.032-.1.051-.145h0a3.216,3.216,0,0,1,2.231-1.991l5.477-1.37,8.594-15.117,9.37-1.187.236.384a24.161,24.161,0,0,1,2.589,19.753C388.7,4005.042,387.635,4007.019,386.353,4007.6Z" transform="translate(-269.782 -3652.979)" fill="#5978f4"/>
      <circle id="椭圆_566" data-name="椭圆 566" cx="19.852" cy="19.852" r="19.852" transform="translate(54.055 10.567)" fill="#ffb8b8"/>
      <path id="路径_6059" data-name="路径 6059" d="M384.054,3909.4l-42.907,2.563-3.843-24.335c-3.978-10.939.995-20.989,8.967-30.74l16.65-18.572,23.053-.639h0a17.217,17.217,0,0,1,11.72,14.246,68.157,68.157,0,0,1-7.131,39.591Z" transform="translate(-292.217 -3783.561)" fill="#7de379"/>
      <path id="路径_6060" data-name="路径 6060" d="M343.161,3948.951l3.07,18.421a8.466,8.466,0,0,1-6.958,9.742l-.124.021h0a8.469,8.469,0,0,1-9.471-10.468l3.877-15.155,15.37-57.636,5.123-39.7,18.572,1.28-7.044,44.188Z" transform="translate(-298.073 -3768.677)" fill="#ffb8b8"/>
      <path id="路径_6061" data-name="路径 6061" d="M384.9,3915.112h-.458c-8.659-7.5-16.184-15.916-10.107-26.449-5.155-13.082-10.9-26.668-10.554-35.072a24.653,24.653,0,0,0-5.6-17.135c-5.477-6.4-6.7-9.254-16.7-6.834h0a18.955,18.955,0,0,1,18.7-19.213c.316-.006.632,0,.949.01l6.249.228c4.78.173,20.059,2.126,23.341,5.283a15.217,15.217,0,0,1,4.354,12.8,14.973,14.973,0,0,0,5.429,13.685c8.417,8.7,11.889,17.738,7.116,27.312-3.6,10.139-3.43,18.484,5.863,22.5h0C416.5,3903.8,396.869,3915.112,384.9,3915.112Z" transform="translate(-287.186 -3808.164)" fill="#2f2e41"/>
      <path id="路径_6062" data-name="路径 6062" d="M364.375,3876.429c-7.948-6.085-15.85-6.562-23.694-.641l2.142-24.318a13.225,13.225,0,0,1,12.593-13.436h0a13.222,13.222,0,0,1,13.835,12.579c.013.284.019.565.013.849Z" transform="translate(-287.908 -3783.25)" fill="#16ada5"/>
      <ellipse id="椭圆_567" data-name="椭圆 567" cx="2.562" cy="4.803" rx="2.562" ry="4.803" transform="translate(71.666 29.459)" fill="#ffb8b8"/>
      <path id="路径_6063" data-name="路径 6063" d="M363.471,3832.455v-21.307a1.921,1.921,0,0,0-1.921-1.921h-3.843a1.921,1.921,0,0,0-1.921,1.921v20.019a12.145,12.145,0,1,0,7.685,1.286Z" transform="translate(-283.481 -3809.227)" fill="#5978f4"/>
      <circle id="椭圆_568" data-name="椭圆 568" cx="5.764" cy="5.764" r="5.764" transform="translate(69.104 28.178)" fill="#fff"/>
    </g>
    <g id="组_4307" data-name="组 4307" transform="translate(1228.133 -3092.545)">
      <path id="路径_6119" data-name="路径 6119" d="M395.675,4018.759s1.522-19.407,25.956-33.555c14.592-8.448,14.973-15.687,12.9-20.145a10.914,10.914,0,0,0-7.052-5.861c-5.91-1.623-19.133-3.215-30.746,9.993-15.551,17.653-2.1,61.726-2.1,61.726Z" transform="translate(-370.793 -3958.132)" fill="#7de379"/>
      <path id="路径_6120" data-name="路径 6120" d="M392.684,4027.446c-8.887-53.075,30.748-65.467,30.748-65.467" transform="translate(-368.848 -3954.662)" fill="none" stroke="#565987" stroke-miterlimit="10" stroke-width="0.218"/>
      <path id="路径_6121" data-name="路径 6121" d="M399.8,3973.516c1.725-5.524-3.732-9.2-3.732-9.2" transform="translate(-364.626 -3952.555)" fill="none" stroke="#565987" stroke-miterlimit="10" stroke-width="0.218"/>
      <path id="路径_6122" data-name="路径 6122" d="M402.253,3965.5c4.077-1.87,7.4,1.522,7.4,1.522" transform="translate(-359.043 -3951.992)" fill="none" stroke="#565987" stroke-miterlimit="10" stroke-width="0.218"/>
      <path id="路径_6123" data-name="路径 6123" d="M394.031,3976.29c1.512-3.72,7.369-.751,7.369-.751" transform="translate(-366.461 -3943.44)" fill="none" stroke="#565987" stroke-miterlimit="10" stroke-width="0.218"/>
      <path id="路径_6124" data-name="路径 6124" d="M394.765,3980.029c-.08-2.1-4.48-1.754-4.48-1.754" transform="translate(-369.841 -3939.978)" fill="none" stroke="#565987" stroke-miterlimit="10" stroke-width="0.218"/>
      <path id="路径_6125" data-name="路径 6125" d="M414.425,3992.3a12.9,12.9,0,0,0,.858-7.8c-.428-2.028-1.356-4.052-3.43-4.385-4.31-.7-20.071,31.332-20.071,31.332C406.187,4007.158,412.188,3997.422,414.425,3992.3Z" transform="translate(-368.489 -3938.309)" fill="#7de379"/>
      <path id="路径_6126" data-name="路径 6126" d="M391.905,4008.324c3.194-1.054,19.722-25.019,19.722-25.019" transform="translate(-368.379 -3935.42)" fill="none" stroke="#565987" stroke-miterlimit="10" stroke-width="0.218"/>
      <line id="直线_43" data-name="直线 43" x2="3.857" transform="translate(40.908 51.626)" fill="none" stroke="#565987" stroke-miterlimit="10" stroke-width="0.218"/>
      <line id="直线_45" data-name="直线 45" x1="0.655" y1="3.148" transform="translate(36.466 53.381)" fill="none" stroke="#565987" stroke-miterlimit="10" stroke-width="0.218"/>
      <path id="路径_6127" data-name="路径 6127" d="M380.653,3992.3a12.885,12.885,0,0,1-.86-7.8c.428-2.028,1.356-4.052,3.432-4.385,4.309-.7,20.071,31.332,20.071,31.332C388.89,4007.158,382.888,3997.422,380.653,3992.3Z" transform="translate(-379.538 -3938.309)" fill="#7de379"/>
      <path id="路径_6128" data-name="路径 6128" d="M401.26,4008.324c-3.194-1.054-19.723-25.019-19.723-25.019" transform="translate(-377.734 -3935.42)" fill="none" stroke="#565987" stroke-miterlimit="10" stroke-width="0.218"/>
      <line id="直线_47" data-name="直线 47" x1="3.857" transform="translate(2.285 51.626)" fill="none" stroke="#565987" stroke-miterlimit="10" stroke-width="0.218"/>
      <line id="直线_49" data-name="直线 49" y1="3.148" x2="0.655" transform="translate(9.929 53.381)" fill="none" stroke="#565987" stroke-miterlimit="10" stroke-width="0.218"/>
    </g>
    <g id="组_4308" data-name="组 4308" transform="translate(1225.77 -3186.51)">
      <rect id="矩形_2560" data-name="矩形 2560" width="0.655" height="45.875" transform="translate(20.316 134.348)" fill="#5978f4"/>
      <rect id="矩形_2561" data-name="矩形 2561" width="0.655" height="45.875" transform="translate(20.316 84.214)" fill="#5978f4"/>
      <rect id="矩形_2562" data-name="矩形 2562" width="0.655" height="45.875" transform="translate(20.316 20.644)" fill="#5978f4"/>
      <circle id="椭圆_214" data-name="椭圆 214" cx="8.192" cy="8.192" r="8.192" transform="translate(12.452 126.157)" fill="#7de379"/>
      <circle id="椭圆_215" data-name="椭圆 215" cx="15.401" cy="15.401" r="15.401" transform="translate(5.243 64.225)" fill="#7de379"/>
      <circle id="椭圆_216" data-name="椭圆 216" cx="20.644" cy="20.644" r="20.644" fill="#7de379"/>
      <circle id="椭圆_217" data-name="椭圆 217" cx="3.277" cy="3.277" r="3.277" transform="translate(9.175 8.192)" fill="#5978f4"/>
      <circle id="椭圆_218" data-name="椭圆 218" cx="1.966" cy="1.966" r="1.966" transform="translate(23.593 16.712)" fill="#5978f4"/>
      <circle id="椭圆_219" data-name="椭圆 219" cx="1.966" cy="1.966" r="1.966" transform="translate(18.678 27.198)" fill="#5978f4"/>
    </g>
    <rect id="矩形_2964" data-name="矩形 2964" width="1089.268" height="612.591" transform="translate(-3.422 -3740.855)" fill="#fff"/>
  </g>
</svg>
